<svg data-v-0dd9719b="" version="1.0" xmlns="http://www.w3.org/2000/svg" xmlns:xlink="http://www.w3.org/1999/xlink" width="100%" height="100%" viewBox="0 0 340.000000 250.000000" preserveAspectRatio="xMidYMid meet" color-interpolation-filters="sRGB" style="margin: auto;">   <g data-v-0dd9719b="" fill="#ef3e43" class="bordersvg b-d1" transform="translate(45.709999084472656,91.81999969482422)"><polyline stroke="#ef3e43" stroke-width="3" fill-opacity="0" fill="#fff2da" points="124.29000091552734,20 124.29000091552734,10 248.5800018310547,0 248.5800018310547,66.36000061035156 124.29000091552734,56.36000061035156 124.29000091552734,46.36000061035156"></polyline> <g transform="translate(0,20)"><g><rect data-gra="graph-name-bg" stroke-width="2" class="i-icon-bg" x="0" y="0" width="248.5800018310547" height="26.360000610351562" fill-opacity="0"></rect> <!----> <!----> </g> <g transform="translate(10,3)"><g data-gra="path-name" fill-rule="" class="tp-name"><g transform="scale(1)"><g><path d="M2.29-20.36L2.29-20.36 2.7-20.36Q4.32-20.36 5.31-17.8L5.31-17.8Q5.37-17.79 10.42-7.79L10.42-7.79Q10.46-7.81 12.51-11.76L12.51-11.76Q9.73-17.11 9.68-17.43L9.68-17.43Q9.63-17.87 9.6-17.96L9.6-17.96Q9.6-19.46 11.32-20.25L11.32-20.25Q11.68-20.36 11.93-20.36L11.93-20.36 12.34-20.36Q13.98-20.36 14.99-17.72L14.99-17.72Q15.06-17.7 15.23-17.24L15.23-17.24Q15.28-17.24 16.38-19.37L16.38-19.37Q17.22-20.36 18.19-20.36L18.19-20.36 18.58-20.36Q19.95-20.36 20.76-18.8L20.76-18.8Q20.91-18.3 20.91-17.92L20.91-17.92Q20.91-17.21 19.78-15.16L19.78-15.16Q18.06-11.93 18.06-11.76L18.06-11.76Q20.06-7.85 20.06-7.79L20.06-7.79Q20.13-7.87 26.02-19.37L26.02-19.37Q26.85-20.36 27.83-20.36L27.83-20.36 28.24-20.36Q29.5-20.36 30.31-18.95L30.31-18.95Q30.52-18.56 30.52-18.2L30.52-18.2 30.52-17.72Q30.52-17.09 28.72-13.89L28.72-13.89Q22.26-1.11 22.02-0.84L22.02-0.84Q21.21 0 20.35 0L20.35 0 19.89 0Q18.27 0 17.45-2.16L17.45-2.16Q15.32-6.28 15.23-6.36L15.23-6.36Q12.59-0.98 12.21-0.64L12.21-0.64Q11.4 0 10.7 0L10.7 0 10.25 0Q8.6 0 7.72-2.31L7.72-2.31Q0.1-17.07 0.09-17.32L0.09-17.32Q0-17.48 0-17.76L0-17.76 0-18.07Q0-19.66 1.96-20.32L1.96-20.32Q2.12-20.36 2.29-20.36ZM42.05-20.36L42.05-20.36 42.49-20.36Q44.07-20.36 45.03-17.85L45.03-17.85Q52.32-3.49 52.53-2.92L52.53-2.92 52.53-2.16Q52.53-0.87 50.83-0.09L50.83-0.09Q50.46 0 50.23 0L50.23 0 49.86 0Q48.27 0 47.29-2.6L47.29-2.6Q42.28-12.51 42.21-12.56L42.21-12.56Q36.6-1.29 36.29-0.84L36.29-0.84Q35.45 0 34.56 0L34.56 0 34.2 0Q32.91 0 32.07-1.56L32.07-1.56Q31.94-2.02 31.94-2.29L31.94-2.29 31.94-2.6Q31.94-3.17 33.39-5.88L33.39-5.88 40.24-19.39Q41.05-20.36 42.05-20.36ZM56.34-20.36L56.34-20.36 72.22-20.36Q73.53-20.36 74.38-18.84L74.38-18.84Q74.54-18.37 74.54-18.12L74.54-18.12 74.54-17.55Q74.54-16.33 73-15.5L73-15.5Q72.51-15.3 72.07-15.3L72.07-15.3 66.8-15.3 66.8-2.37Q66.8-0.8 64.94-0.04L64.94-0.04 64.53 0 63.96 0Q62.72 0 61.89-1.52L61.89-1.52Q61.69-2.02 61.69-2.44L61.69-2.44 61.69-15.3 56.55-15.3Q54.75-15.3 54.04-17.11L54.04-17.11Q53.95-17.48 53.95-17.63L53.95-17.63 53.95-17.99Q53.95-19.54 55.77-20.27L55.77-20.27Q56.08-20.36 56.34-20.36ZM86.09-20.36L86.09-20.36 94.23-20.36Q95.52-20.36 96.39-18.84L96.39-18.84Q96.54-18.37 96.54-18.12L96.54-18.12 96.54-17.55Q96.54-16.33 95.01-15.5L95.01-15.5Q94.51-15.3 94.07-15.3L94.07-15.3 87.23-15.3Q83.17-15.3 81.38-11.9L81.38-11.9Q81.07-10.96 81.07-10.09L81.07-10.09Q81.07-7.33 84.22-5.65L84.22-5.65Q85.61-5.05 86.9-5.05L86.9-5.05 93.83-5.05Q95.82-5.05 96.5-3.17L96.5-3.17 96.54-2.77 96.54-2.2Q96.54-1.02 95.08-0.2L95.08-0.2Q94.67 0 94.31 0L94.31 0 85.84 0Q82.5 0 79.28-2.68L79.28-2.68Q77.45-4.54 77.05-5.61L77.05-5.61Q75.96-7.78 75.96-9.78L75.96-9.78 75.96-10.53Q75.96-14.17 79-17.39L79-17.39Q82.26-20.36 86.09-20.36ZM100.35-20.36L100.35-20.36 100.72-20.36Q101.98-20.36 102.83-18.91L102.83-18.91Q103.07-18.44 103.07-17.79L103.07-17.79 103.07-12.71 113.44-12.71 113.44-17.63Q113.44-19.68 115.43-20.32L115.43-20.32Q115.71-20.36 115.88-20.36L115.88-20.36 116.24-20.36Q117.54-20.36 118.39-18.84L118.39-18.84Q118.55-18.37 118.55-18.12L118.55-18.12 118.55-2.2Q118.55-1.02 117.09-0.2L117.09-0.2Q116.68 0 116.32 0L116.32 0 115.75 0Q114.4 0 113.61-1.65L113.61-1.65Q113.44-2.14 113.44-2.73L113.44-2.73 113.44-7.65 103.07-7.65 103.07-2.44Q103.07-0.78 101.16-0.04L101.16-0.04Q100.94 0 100.8 0L100.8 0 100.23 0Q98.94 0 98.12-1.56L98.12-1.56Q97.96-1.97 97.96-2.29L97.96-2.29 97.96-17.99Q97.96-19.54 99.78-20.27L99.78-20.27Q100.09-20.36 100.35-20.36ZM122.35-20.36L122.35-20.36 122.72-20.36Q123.99-20.36 124.84-18.91L124.84-18.91Q125.08-18.44 125.08-17.79L125.08-17.79 125.08-5.05 137.8-5.05Q140.04-5.05 140.56-2.88L140.56-2.88 140.56-2.2Q140.56-1.02 139.09-0.2L139.09-0.2Q138.68 0 138.33 0L138.33 0 122.24 0Q120.95 0 120.13-1.56L120.13-1.56Q119.97-1.97 119.97-2.29L119.97-2.29 119.97-17.99Q119.97-19.54 121.79-20.27L121.79-20.27Q122.1-20.36 122.35-20.36ZM152.08-20.36L152.08-20.36 152.52-20.36Q154.1-20.36 155.07-17.85L155.07-17.85Q162.35-3.49 162.56-2.92L162.56-2.92 162.56-2.16Q162.56-0.87 160.86-0.09L160.86-0.09Q160.49 0 160.26 0L160.26 0 159.89 0Q158.3 0 157.32-2.6L157.32-2.6Q152.31-12.51 152.24-12.56L152.24-12.56Q146.63-1.29 146.32-0.84L146.32-0.84Q145.48 0 144.59 0L144.59 0 144.23 0Q142.94 0 142.1-1.56L142.1-1.56Q141.98-2.02 141.98-2.29L141.98-2.29 141.98-2.6Q141.98-3.17 143.42-5.88L143.42-5.88 150.27-19.39Q151.08-20.36 152.08-20.36ZM166.37-20.36L166.37-20.36 182.25-20.36Q183.56-20.36 184.41-18.84L184.41-18.84Q184.57-18.37 184.57-18.12L184.57-18.12 184.57-17.55Q184.57-16.33 183.03-15.5L183.03-15.5Q182.54-15.3 182.1-15.3L182.1-15.3 176.83-15.3 176.83-2.37Q176.83-0.8 174.97-0.04L174.97-0.04 174.56 0 173.99 0Q172.76 0 171.92-1.52L171.92-1.52Q171.72-2.02 171.72-2.44L171.72-2.44 171.72-15.3 166.58-15.3Q164.78-15.3 164.07-17.11L164.07-17.11Q163.98-17.48 163.98-17.63L163.98-17.63 163.98-17.99Q163.98-19.54 165.8-20.27L165.8-20.27Q166.11-20.36 166.37-20.36ZM188.37-20.36L188.37-20.36 204.26-20.36Q205.57-20.36 206.42-18.84L206.42-18.84Q206.57-18.37 206.57-18.12L206.57-18.12 206.57-17.55Q206.57-16.33 205.04-15.5L205.04-15.5Q204.54-15.3 204.1-15.3L204.1-15.3 191.1-15.3 191.1-12.71 201.15-12.71Q203.07-12.71 203.73-11.19L203.73-11.19Q203.93-10.75 203.93-10.38L203.93-10.38 203.93-10.02Q203.93-8.48 202.12-7.74L202.12-7.74Q201.82-7.65 201.55-7.65L201.55-7.65 191.1-7.65 191.1-5.05 203.82-5.05Q206.06-5.05 206.57-2.88L206.57-2.88 206.57-2.2Q206.57-1.02 205.11-0.2L205.11-0.2Q204.7 0 204.35 0L204.35 0 188.26 0Q186.97 0 186.14-1.56L186.14-1.56Q185.99-1.97 185.99-2.29L185.99-2.29 185.99-17.99Q185.99-19.54 187.8-20.27L187.8-20.27Q188.12-20.36 188.37-20.36ZM210.38-20.36L210.38-20.36 222.5-20.36Q225.1-20.36 227.29-17.92L227.29-17.92Q228.58-16.06 228.58-14.42L228.58-14.42 228.58-13.59Q228.58-11.1 226.11-8.93L226.11-8.93Q224.6-7.96 223.71-7.81L223.71-7.81 223.71-7.78Q226.86-4.98 227.86-3.89L227.86-3.89Q228.3-3.15 228.3-2.48L228.3-2.48Q228.3-0.88 226.51-0.09L226.51-0.09Q226.15 0 225.98 0L225.98 0 225.41 0Q224.42 0 222.79-1.76L222.79-1.76Q222.22-2.23 216.34-7.65L216.34-7.65 213.1-7.65 213.1-2.44Q213.1-0.78 211.19-0.04L211.19-0.04Q210.98 0 210.83 0L210.83 0 210.27 0Q208.97 0 208.15-1.56L208.15-1.56Q207.99-1.97 207.99-2.29L207.99-2.29 207.99-17.99Q207.99-19.54 209.81-20.27L209.81-20.27Q210.12-20.36 210.38-20.36ZM223.47-15.3L213.1-15.3 213.1-12.66 223.47-12.66 223.47-15.3Z" transform="translate(0, 20.360000610351562)"></path></g> <!----> <!----> <!----> <!----> <!----> <!----> <!----></g></g> <!----></g></g></g><defs v-gra="od"></defs></svg>